<svg xmlns="http://www.w3.org/2000/svg" width="112.509" height="194.096" viewBox="0 0 112.509 194.096">
  <g id="basil" transform="translate(-11.5 -627.469)">
    <path id="Path_225" data-name="Path 225" d="M121.612,627.709c-28.142,18.436-66.334,13.692-92.586,35.7-10.5,8.808-18.633,21.721-17.4,35.886,1.588,18.292,16.317,33.915,11.626,52.938a.375.375,0,0,0,.723.2c6.253-16.182-4.714-31.239-8.345-46.574C11.7,689.3,19.79,673.541,33.063,663.722c24.853-18.386,58.558-15.55,85.19-30.254-11.7,23.844-12.174,53.628-34.618,70.955-12.572,9.705-28.041,14.694-40.722,24.233-6.591,4.957-12.77,11.661-16.114,19.389A126.058,126.058,0,0,1,34.337,722.8c.034-.083.073-.165.108-.248C48.93,709.848,66.3,702.289,85.388,698.939c.413-.073.321-.768-.1-.737-18.776,1.389-36.647,10.095-50.251,23a131.43,131.43,0,0,1,15.352-26.4c6.1-2.761,11.822-6.494,17.9-9.324,7.735-3.6,15.761-6.566,23.8-9.42a.376.376,0,0,0-.2-.724,142.7,142.7,0,0,0-22.6,8.348c-5.76,2.652-12.095,5.47-17.424,9.229,1.8-2.319,3.662-4.593,5.614-6.786,9.866-11.081,21.352-19.439,33.817-27.316a.657.657,0,0,0-.663-1.134A107.791,107.791,0,0,0,66.521,674.4a67.776,67.776,0,0,0,14.266-27.777.187.187,0,0,0-.361-.1A97.537,97.537,0,0,1,64.87,675.933a136.29,136.29,0,0,0-31.592,45.69c-.306.729-.6,1.464-.891,2.2-.623.643-1.249,1.282-1.851,1.943a.141.141,0,0,0,.2.2c.418-.407.848-.791,1.271-1.188a130.188,130.188,0,0,0,.517,95.413c.066.163.333.1.271-.075a139.85,139.85,0,0,1-7.989-56.388,1.227,1.227,0,0,0,2.084-.887c.806-35.516,44.018-40.483,64.487-61.125,19.218-19.382,18.634-49.318,32.416-71.824A1.6,1.6,0,0,0,121.612,627.709Z" fill="#526d82"/>
    <path id="Path_226" data-name="Path 226" d="M114.957,708.063c-9.1,3.316-18.1,6.908-27.132,10.4-7.675,2.971-15.768,5.353-22.387,10.413a57.089,57.089,0,0,0-13.917,16.1c-3.7,6.145-7.846,13.856-9.361,21.087a70.842,70.842,0,0,0-4.81,8.878,23.176,23.176,0,0,0-1.535,2.38.771.771,0,0,0,.122.971,71.066,71.066,0,0,0-2.973,43.1c.074.3.506.168.452-.124a74.5,74.5,0,0,1,6.415-46.29c12.689-13.493,35.156-6.65,50.669-15.1,18.171-9.9,17.024-34.047,25.631-50.291C116.522,708.852,115.86,707.734,114.957,708.063ZM82.346,761.034c-12.1,3.214-28.763,1.313-39.6,8.7a70.761,70.761,0,0,1,15.893-17.886,101.451,101.451,0,0,1,39.88-6.933c.243.006.239-.36,0-.375a88.362,88.362,0,0,0-38.991,6.6,87.524,87.524,0,0,1,17.725-10.682c.867-.4.253-1.844-.65-1.542a64.83,64.83,0,0,0-30.17,21.212c1.984-4.219,3.719-8.641,5.989-12.575,4.061-7.039,9.232-13.586,16-18.2a41.81,41.81,0,0,1,4.537-2.646c-1.34,2.812-2.491,5.707-3.94,8.473-1.688,3.225-3.842,6.183-5.429,9.453a.05.05,0,0,0,.079.06c4.868-4.641,8.932-12.2,10.729-18.7,5.387-2.558,11.264-4.353,16.725-6.451,7.381-2.836,14.785-5.62,22.124-8.564C105.4,729.469,105.47,754.893,82.346,761.034Z" fill="#526d82"/>
    <path id="Path_227" data-name="Path 227" d="M103.717,651.3a50.747,50.747,0,0,0-7.189,3.527c-.185.1-.054.426.144.343a50.727,50.727,0,0,0,7.3-3.27C104.274,651.713,104.082,651.182,103.717,651.3Z" fill="#526d82"/>
    <path id="Path_228" data-name="Path 228" d="M40.653,662.143a.235.235,0,0,0-.452.125c3.612,14.277,3.577,28,1.606,42.478-.063.462.607.683.723.2C45.879,690.958,44.671,675.839,40.653,662.143Z" fill="#526d82"/>
    <path id="Path_229" data-name="Path 229" d="M23.723,693.356a.047.047,0,0,0-.081.047,72.757,72.757,0,0,1,8.8,30.857c.046.78,1.265.785,1.219,0A64.467,64.467,0,0,0,23.723,693.356Z" fill="#526d82"/>
    <path id="Path_230" data-name="Path 230" d="M105.12,716.5A92.1,92.1,0,0,1,81.7,737.085a.047.047,0,0,0,.047.081,66.451,66.451,0,0,0,24.4-19.87C106.592,716.7,105.6,715.927,105.12,716.5Z" fill="#526d82"/>
    <path id="Path_231" data-name="Path 231" d="M106.334,730.145a55.672,55.672,0,0,0-18.5,4.331c-.148.063-.042.3.108.257a80.51,80.51,0,0,1,18.394-3.369C107.114,731.318,107.117,730.093,106.334,730.145Z" fill="#526d82"/>
    <path id="Path_232" data-name="Path 232" d="M93.221,718.478c-.877,2.433-1.592,4.852-2.7,7.209-.993,2.116-2.46,3.989-3.4,6.11-.05.113.064.282.193.192,3.87-2.712,6.544-8.784,7.1-13.349C94.507,717.917,93.438,717.876,93.221,718.478Z" fill="#526d82"/>
    <path id="Path_233" data-name="Path 233" d="M88.6,756.947c-4.884.81-9.726,2.02-14.567,3.053-.119.025-.068.2.049.181,4.873-.908,9.816-1.652,14.642-2.782C89.02,757.329,88.889,756.9,88.6,756.947Z" fill="#526d82"/>
    <path id="Path_234" data-name="Path 234" d="M92.161,753.065c-3.359.358-6.769,2.075-9.9,3.277a.094.094,0,0,0,.05.181c3.264-.705,7.063-1.132,10.059-2.672C92.731,753.668,92.58,753.02,92.161,753.065Z" fill="#526d82"/>
    <path id="Path_235" data-name="Path 235" d="M96.187,748.971a11.224,11.224,0,0,0-3.17,1.055l-3.51,1.373c-.219.086-.137.433.1.362L93.2,750.69a11.235,11.235,0,0,0,3.153-1.107C96.6,749.414,96.536,748.948,96.187,748.971Z" fill="#526d82"/>
    <path id="Path_236" data-name="Path 236" d="M100.335,741.495a2.734,2.734,0,0,0-1.618.191,7.891,7.891,0,0,0-1.468.812.236.236,0,0,0,.119.436c.99.048,2.436.22,3.194-.577A.522.522,0,0,0,100.335,741.495Z" fill="#526d82"/>
    <path id="Path_237" data-name="Path 237" d="M101.712,738.476a2.326,2.326,0,0,0-1.975.518.426.426,0,0,0,.213.786,2.322,2.322,0,0,0,1.948-.6A.427.427,0,0,0,101.712,738.476Z" fill="#526d82"/>
    <path id="Path_238" data-name="Path 238" d="M106.756,723.113,106.284,725a.047.047,0,0,0,.091.025l.471-1.887A.047.047,0,0,0,106.756,723.113Z" fill="#526d82"/>
    <path id="Path_239" data-name="Path 239" d="M89.788,691.172l-3.833.995a7.157,7.157,0,0,0-2.942,1.027c-.2.17-.022.464.2.48a7.88,7.88,0,0,0,3.147-.972l3.479-1.35A.093.093,0,0,0,89.788,691.172Z" fill="#526d82"/>
    <path id="Path_240" data-name="Path 240" d="M93.288,686.568l-6.419,1.693c-.47.124-.253.884.2.723l6.269-2.235A.094.094,0,0,0,93.288,686.568Z" fill="#526d82"/>
    <path id="Path_241" data-name="Path 241" d="M96.326,681.205l-3.269,1.387a16.044,16.044,0,0,0-3.212,1.486c-.326.237-.147.807.289.685a15.071,15.071,0,0,0,3.02-1.506l3.314-1.809C96.632,681.359,96.488,681.136,96.326,681.205Z" fill="#526d82"/>
    <path id="Path_242" data-name="Path 242" d="M98.743,677.318a9.517,9.517,0,0,0-4.959.945.519.519,0,0,0,.261.96,9.508,9.508,0,0,0,4.769-1.643A.142.142,0,0,0,98.743,677.318Z" fill="#526d82"/>
    <path id="Path_243" data-name="Path 243" d="M102.131,666.919l-3.839,2.242c-.474.277-.015,1.039.426.729l3.649-2.567C102.61,667.152,102.4,666.764,102.131,666.919Z" fill="#526d82"/>
    <path id="Path_244" data-name="Path 244" d="M78.737,703.467a11.563,11.563,0,0,0-3.735.746,6.282,6.282,0,0,0-2.921,1.629c-.023.028-.011.083.034.08a14.486,14.486,0,0,0,3.1-.936c1.185-.352,2.409-.584,3.61-.875A.329.329,0,0,0,78.737,703.467Z" fill="#526d82"/>
    <path id="Path_245" data-name="Path 245" d="M71.843,708.074l-8.452,2.73a.047.047,0,0,0,.025.09l8.527-2.458C72.175,708.369,72.073,708,71.843,708.074Z" fill="#526d82"/>
    <path id="Path_246" data-name="Path 246" d="M62.845,714.379a12.731,12.731,0,0,0-6.071,2.347.141.141,0,0,0,.142.243,16.677,16.677,0,0,1,5.929-1.652C63.439,715.255,63.445,714.317,62.845,714.379Z" fill="#526d82"/>
    <path id="Path_247" data-name="Path 247" d="M21.126,689.2a9.019,9.019,0,0,0-1.073-1.712.189.189,0,0,0-.343.144,8.533,8.533,0,0,0,.422,1.843C20.385,690.073,21.383,689.808,21.126,689.2Z" fill="#526d82"/>
    <path id="Path_248" data-name="Path 248" d="M29.406,695.517a43.8,43.8,0,0,0-6.479-12.623.141.141,0,0,0-.243.142c2.23,4.144,4.122,8.474,6.036,12.77C28.894,696.2,29.529,695.918,29.406,695.517Z" fill="#526d82"/>
    <path id="Path_249" data-name="Path 249" d="M25.706,680q-.51-1.713-1.021-3.425c-.029-.1-.2-.084-.184.025q.234,1.749.469,3.5C25.044,680.649,25.859,680.51,25.706,680Z" fill="#526d82"/>
    <path id="Path_250" data-name="Path 250" d="M27.776,673.3c-.036-.207-.385-.161-.369.05l.156,2a.28.28,0,1,0,.553-.075Q27.947,674.286,27.776,673.3Z" fill="#526d82"/>
    <path id="Path_251" data-name="Path 251" d="M18.829,699.6c.009-.306-.44-.3-.469,0a24.2,24.2,0,0,0,.373,8.35c.1.4.785.329.737-.1A58.142,58.142,0,0,1,18.829,699.6Z" fill="#526d82"/>
    <path id="Path_252" data-name="Path 252" d="M58.3,654.44a33.061,33.061,0,0,0-11.253,5.082c-.05.033-.005.112.047.081A46.492,46.492,0,0,1,58.4,654.8.188.188,0,0,0,58.3,654.44Z" fill="#526d82"/>
  </g>
</svg>
