<svg xmlns="http://www.w3.org/2000/svg" width="33.234" height="44.5" viewBox="0 0 33.234 44.5">
  <g id="Group_16" data-name="Group 16" transform="translate(-633 -551.5)">
    <path id="Path_769" data-name="Path 769" d="M665.041,562.414V587.79a6.406,6.406,0,0,1-6.369,6.413h-18.3A6.406,6.406,0,0,1,634,587.79V562.414A6.406,6.406,0,0,1,640.369,556h18.3A6.406,6.406,0,0,1,665.041,562.414Z" transform="translate(0 0.796)" fill="none" stroke="#dde6ed" stroke-miterlimit="10" stroke-width="2"/>
    <path id="Path_770" data-name="Path 770" d="M666.235,562.614v4.131H634v-4.131A6.629,6.629,0,0,1,640.614,556H659.62A6.629,6.629,0,0,1,666.235,562.614Z" transform="translate(0 0.796)" fill="#dde6ed"/>
    <rect id="Rectangle_15" data-name="Rectangle 15" width="5.969" height="4.775" rx="0.802" transform="translate(636.985 571.72)" fill="none" stroke="#dde6ed" stroke-miterlimit="10" stroke-width="0.75"/>
    <rect id="Rectangle_16" data-name="Rectangle 16" width="5.969" height="4.775" rx="0.802" transform="translate(646.536 571.72)" fill="none" stroke="#dde6ed" stroke-miterlimit="10" stroke-width="0.75"/>
    <rect id="Rectangle_17" data-name="Rectangle 17" width="5.969" height="4.775" rx="0.802" transform="translate(656.087 571.72)" fill="#dde6ed"/>
    <rect id="Rectangle_18" data-name="Rectangle 18" width="5.969" height="4.775" rx="0.802" transform="translate(636.985 578.883)" fill="none" stroke="#dde6ed" stroke-miterlimit="10" stroke-width="0.75"/>
    <rect id="Rectangle_19" data-name="Rectangle 19" width="5.969" height="4.775" rx="0.802" transform="translate(646.536 578.883)" fill="none" stroke="#dde6ed" stroke-miterlimit="10" stroke-width="0.75"/>
    <line id="Line_3" data-name="Line 3" y1="7" transform="translate(644.617 552.5)" fill="none" stroke="#dde6ed" stroke-linecap="round" stroke-miterlimit="10" stroke-width="2"/>
    <line id="Line_4" data-name="Line 4" y1="7" transform="translate(653.617 552.5)" fill="none" stroke="#dde6ed" stroke-linecap="round" stroke-miterlimit="10" stroke-width="2"/>
  </g>
</svg>
