<svg xmlns="http://www.w3.org/2000/svg" width="39.948" height="41.529" viewBox="0 0 39.948 41.529">
  <g id="Group_17" data-name="Group 17" transform="translate(-677 -560)">
    <path id="Path_771" data-name="Path 771" d="M692.23,591.231H678V577" transform="translate(0 9.299)" fill="none" stroke="#dde6ed" stroke-linecap="round" stroke-linejoin="round" stroke-width="2"/>
    <path id="Path_772" data-name="Path 772" d="M678,575.23V561h14.23" fill="none" stroke="#dde6ed" stroke-linecap="round" stroke-linejoin="round" stroke-width="2"/>
    <path id="Path_773" data-name="Path 773" d="M693,561h14.231v14.23" transform="translate(8.718)" fill="none" stroke="#dde6ed" stroke-linecap="round" stroke-linejoin="round" stroke-width="2"/>
    <path id="Path_774" data-name="Path 774" d="M707.231,577v14.231H693" transform="translate(8.718 9.299)" fill="none" stroke="#dde6ed" stroke-linecap="round" stroke-linejoin="round" stroke-width="2"/>
    <rect id="Rectangle_20" data-name="Rectangle 20" width="10" height="9" rx="1.167" transform="translate(683.974 569.265)" stroke-width="1.5" stroke="#dde6ed" stroke-linecap="round" stroke-linejoin="round" fill="none"/>
    <rect id="Rectangle_21" data-name="Rectangle 21" width="10" height="9" rx="1.167" transform="translate(683.974 583.265)" stroke-width="1.5" stroke="#dde6ed" stroke-linecap="round" stroke-linejoin="round" fill="none"/>
    <rect id="Rectangle_22" data-name="Rectangle 22" width="10" height="9" rx="1.167" transform="translate(699.974 569.265)" stroke-width="1.5" stroke="#dde6ed" stroke-linecap="round" stroke-linejoin="round" fill="none"/>
    <rect id="Rectangle_23" data-name="Rectangle 23" width="3.689" height="3.689" rx="0.667" transform="translate(687.223 571.805)" fill="#dde6ed" stroke="#dde6ed" stroke-width="1"/>
    <rect id="Rectangle_24" data-name="Rectangle 24" width="3.689" height="3.689" rx="0.667" transform="translate(687.223 586.035)" fill="#dde6ed" stroke="#dde6ed" stroke-width="1"/>
    <rect id="Rectangle_25" data-name="Rectangle 25" width="3.689" height="3.689" rx="0.667" transform="translate(703.035 571.805)" fill="#dde6ed" stroke="#dde6ed" stroke-width="1"/>
    <rect id="Rectangle_26" data-name="Rectangle 26" width="3" height="5" rx="0.667" transform="translate(700.974 583.265)" fill="#dde6ed" stroke="#dde6ed" stroke-width="1"/>
    <rect id="Rectangle_27" data-name="Rectangle 27" width="3.019" height="3.019" rx="0.667" transform="translate(700.783 590.395)" fill="#dde6ed" stroke="#dde6ed" stroke-width="1"/>
    <rect id="Rectangle_28" data-name="Rectangle 28" width="3.019" height="3.019" rx="0.667" transform="translate(705.958 583.927)" fill="#dde6ed" stroke="#dde6ed" stroke-width="1"/>
    <rect id="Rectangle_29" data-name="Rectangle 29" width="3" height="5" rx="0.667" transform="translate(705.974 589.265)" fill="#dde6ed" stroke="#dde6ed" stroke-width="1"/>
  </g>
</svg>
