<svg xmlns="http://www.w3.org/2000/svg" width="252.297" height="422.901" viewBox="0 0 252.297 422.901">
  <g id="spoon" transform="matrix(0.891, -0.454, 0.454, 0.891, -510.112, 101.969)">
    <path id="Path_4" data-name="Path 4" d="M487.909,234.96c-4.252-10.993-5.08-23.346-.129-34.25,4.394-9.676,12.661-17.319,23.081-19.652q2.589,7.895,5.24,15.769a1.4,1.4,0,0,0,2.726-.45q-.33-8.067-.658-16.134a1.276,1.276,0,0,0-2.55.074q.084,3.264.17,6.53-1.29-3.939-2.6-7.873a1.48,1.48,0,0,0-1.791-.95c-21.992,3.943-32.8,27.855-28.738,48.25,2.313,11.616,8.669,22.19,16.643,30.8,4.764,5.147,10.124,9.765,14.29,15.443a30.56,30.56,0,0,1,6.229,20.716c-.006.135.215.2.266.064,3.911-10.071-3.622-21.094-10.075-28.162C501.389,255.688,492.629,247.163,487.909,234.96Z" fill="#526d82"/>
    <path id="Path_5" data-name="Path 5" d="M561.913,217.411c-1.433-9.724-6.94-19.263-15.373-24.533-.549-.343-1.135.482-.661.91,8.239,7.459,13.659,17.416,13.634,28.748-.023,10.548-5.5,20.745-13.841,27.11-9.411,7.183-22.543,9.384-32.985,3.075-10.506-6.348-15.821-17.867-21.375-28.289a.036.036,0,0,0-.064.029c3.438,9.785,7.637,19.677,15.433,26.846a29.74,29.74,0,0,0,26.859,7.058C551.838,254.356,564.639,235.918,561.913,217.411Z" fill="#526d82"/>
    <path id="Path_6" data-name="Path 6" d="M564.486,193.307c-5.069-5.649-11.913-9.465-19.071-11.8-8.458-2.762-18.823-4.324-27.715-3.552-.611.053-.774.98-.119,1.118,7.934,1.672,16.041,1.617,23.931,3.8,7.235,2.005,14.209,5.34,19.586,10.682,11.24,11.167,10.449,29.392,6.083,43.488a71.856,71.856,0,0,1-9.343,18.946c-4.278,6.315-9.924,10.869-15.118,16.328a28.1,28.1,0,0,0-7.733,17.255c-.854,8.032-.941,16.259-1.057,24.33-.282,19.719.041,39.472,1.083,59.165a1.1,1.1,0,0,0,2.2-.064c-.977-18.458-1.4-36.951-.815-55.429.3-9.5.08-19.25,1.289-28.687,1.111-8.67,5.915-14,12.119-19.672,10.84-9.9,18.639-21.535,21.979-36C574.935,219.556,574.278,204.217,564.486,193.307Z" fill="#526d82"/>
    <path id="Path_7" data-name="Path 7" d="M536.157,377.566a.887.887,0,0,0-1.772.051c-1.9,22.534-1.529,36.807-1.868,59.413-.331,22.069-1.318,21.464-1.649,43.533-.663,44.142-2.424,67.864-2.855,112.012-.054,5.516-.261,5.742-.315,11.258q-.036,3.762-.073,7.522c-.015,1.493.684,8-.9,7.971-3.715-.065-2.879-11.676-2.978-14.289-.229-6.04-.111-6.8-.219-12.844-.394-22.167-.82-39.038-1.117-61.207-.594-44.339-.085-50.89-.647-95.229-.638-50.389,1.411-88.746.81-139.134-.024-2.008-3.144-1.919-3.117.09,1.255,93.714-1.217,137.617-.1,231.337.282,23.686.129,42.08.308,65.766.041,5.539.043,5.8-.077,11.342-.1,4.729-1.077,10.637,1.029,15.089,2.948,6.233,12.473,6.011,12.862-1.541.619-12,.559-18.811.753-30.823.187-11.535.506-17.78.626-29.316.24-23.067.868-31.014.911-54.082.049-26.077,1.111-29.482,1.4-55.557C537.459,422.367,537.717,404.091,536.157,377.566Z" fill="#526d82"/>
    <path id="Path_8" data-name="Path 8" d="M538.055,252.389a87.831,87.831,0,0,0-15.713.773.284.284,0,0,0,.016.567,87.748,87.748,0,0,0,15.731-.136A.6.6,0,0,0,538.055,252.389Z" fill="#526d82"/>
    <path id="Path_9" data-name="Path 9" d="M546.34,247.068c-5.873.011-11.716.3-17.574.685a.071.071,0,0,0,0,.142c5.87.05,11.721,0,17.585-.331A.248.248,0,0,0,546.34,247.068Z" fill="#526d82"/>
    <path id="Path_10" data-name="Path 10" d="M552.5,242.53c-5.657-.191-11.921-.259-17.472.937a.178.178,0,0,0,.01.341c5.613.874,11.864.443,17.5-.074A.6.6,0,0,0,552.5,242.53Z" fill="#526d82"/>
    <path id="Path_11" data-name="Path 11" d="M555.04,236.27c-6.364-.11-12.8.353-19.143.873a.319.319,0,0,0,.018.637c6.357.152,12.816.243,19.162-.235A.638.638,0,0,0,555.04,236.27Z" fill="#526d82"/>
    <path id="Path_12" data-name="Path 12" d="M557.858,229.856c-5.6-.23-11.263.322-16.862.6a.283.283,0,0,0,.016.566c5.6-.051,11.29.172,16.869-.381A.39.39,0,0,0,557.858,229.856Z" fill="#526d82"/>
    <path id="Path_13" data-name="Path 13" d="M560.134,223.237c-5.255-.741-10.641.187-15.893.719a.39.39,0,0,0,.023.78c5.271.227,10.708.842,15.908-.2A.678.678,0,0,0,560.134,223.237Z" fill="#526d82"/>
    <path id="Path_14" data-name="Path 14" d="M559.77,216.822a74.126,74.126,0,0,0-11,.531.425.425,0,0,0,.025.85,74.245,74.245,0,0,0,11.011-.106A.638.638,0,0,0,559.77,216.822Z" fill="#526d82"/>
    <path id="Path_15" data-name="Path 15" d="M555.576,210.329a37.893,37.893,0,0,0-12.546.734.464.464,0,0,0,.026.888,37.9,37.9,0,0,0,12.568.007A.815.815,0,0,0,555.576,210.329Z" fill="#526d82"/>
    <path id="Path_16" data-name="Path 16" d="M551.171,206.375c-3.375-.044-6.774.207-10.147.329a.284.284,0,0,0,.016.567c3.375-.073,6.782-.019,10.149-.258A.319.319,0,0,0,551.171,206.375Z" fill="#526d82"/>
    <path id="Path_17" data-name="Path 17" d="M548.959,201.538a28.866,28.866,0,0,0-6.227-.058c-1.954.144-4.252.142-6.046.96a.251.251,0,0,0,.014.478c1.838.712,4.132.577,6.092.608a28.882,28.882,0,0,0,6.212-.417A.821.821,0,0,0,548.959,201.538Z" fill="#526d82"/>
    <path id="Path_18" data-name="Path 18" d="M544.45,196.559a47.556,47.556,0,0,0-10.282.617.283.283,0,0,0,.016.566,47.545,47.545,0,0,0,10.3.021A.6.6,0,0,0,544.45,196.559Z" fill="#526d82"/>
    <path id="Path_19" data-name="Path 19" d="M541.9,192.3a46.1,46.1,0,0,0-7.422.569.142.142,0,0,0,.008.283,46.12,46.12,0,0,0,7.442.14A.5.5,0,0,0,541.9,192.3Z" fill="#526d82"/>
    <path id="Path_20" data-name="Path 20" d="M537.088,189.335a10.7,10.7,0,0,0-4.053.622.251.251,0,0,0,.014.479,10.7,10.7,0,0,0,4.082.387A.745.745,0,0,0,537.088,189.335Z" fill="#526d82"/>
    <path id="Path_21" data-name="Path 21" d="M541.909,271.874a75.2,75.2,0,0,0-14.613.855.179.179,0,0,0,.009.342,75.206,75.206,0,0,0,14.638.008A.6.6,0,0,0,541.909,271.874Z" fill="#526d82"/>
    <path id="Path_22" data-name="Path 22" d="M549.322,266.08c-5.153-.18-10.543-.308-15.617.742a.178.178,0,0,0,.01.341c5.125.755,10.5.315,15.634-.162A.461.461,0,0,0,549.322,266.08Z" fill="#526d82"/>
    <path id="Path_23" data-name="Path 23" d="M555.717,259.673c-4.3-.162-9.1-.181-13.287.882a.035.035,0,0,0,0,.068c4.245.82,9.038.522,13.316.113A.532.532,0,0,0,555.717,259.673Z" fill="#526d82"/>
    <path id="Path_24" data-name="Path 24" d="M559.977,253.649a48.892,48.892,0,0,0-9.425.557.283.283,0,0,0,.017.566,48.9,48.9,0,0,0,9.441.011A.568.568,0,0,0,559.977,253.649Z" fill="#526d82"/>
    <path id="Path_25" data-name="Path 25" d="M561.505,248.824a15.415,15.415,0,0,0-4.809.2.284.284,0,0,0,.016.567,15.383,15.383,0,0,0,4.813-.081A.357.357,0,0,0,561.505,248.824Z" fill="#526d82"/>
    <path id="Path_26" data-name="Path 26" d="M565.271,243.8l-5.575.126a.284.284,0,0,0,.016.567l5.573-.2A.248.248,0,0,0,565.271,243.8Z" fill="#526d82"/>
    <path id="Path_27" data-name="Path 27" d="M566.737,240.112l-4,.116a.319.319,0,0,0,.018.638l4-.116A.319.319,0,0,0,566.737,240.112Z" fill="#526d82"/>
    <path id="Path_28" data-name="Path 28" d="M568.536,235.765c-1.8-.232-4.124-.444-5.6.789a.178.178,0,0,0,.007.251c1.549,1.145,3.858.8,5.639.463A.785.785,0,0,0,568.536,235.765Z" fill="#526d82"/>
    <path id="Path_29" data-name="Path 29" d="M570.636,229.622a4.4,4.4,0,0,0-2.834-.2,7.147,7.147,0,0,0-2.555.81.319.319,0,0,0-.185.149l0,.005a.385.385,0,0,0-.042.1.278.278,0,0,0-.01.05.383.383,0,0,0,0,.076.421.421,0,0,0,.006.061.449.449,0,0,0,.016.061.4.4,0,0,0,.046.1l0,0a.312.312,0,0,0,.2.141,7.154,7.154,0,0,0,2.6.659,4.4,4.4,0,0,0,2.817-.363A.963.963,0,0,0,570.636,229.622Z" fill="#526d82"/>
    <path id="Path_30" data-name="Path 30" d="M570.072,222.9a14.791,14.791,0,0,0-4.107.388.142.142,0,0,0,.008.283,14.791,14.791,0,0,0,4.122.149A.428.428,0,0,0,570.072,222.9Z" fill="#526d82"/>
    <path id="Path_31" data-name="Path 31" d="M570.368,217.264a21.09,21.09,0,0,0-5.327.445.178.178,0,0,0,.01.341,21.132,21.132,0,0,0,5.343.136A.461.461,0,0,0,570.368,217.264Z" fill="#526d82"/>
    <path id="Path_32" data-name="Path 32" d="M570.922,211.706a11.421,11.421,0,0,0-5.956.556.214.214,0,0,0,.01.367,11.43,11.43,0,0,0,5.979.211A.568.568,0,0,0,570.922,211.706Z" fill="#526d82"/>
    <path id="Path_33" data-name="Path 33" d="M568.505,207.271a16.253,16.253,0,0,0-6.65.523.322.322,0,0,0,.018.615,16.266,16.266,0,0,0,6.669.137A.638.638,0,0,0,568.505,207.271Z" fill="#526d82"/>
    <path id="Path_34" data-name="Path 34" d="M568.542,203.622a33.438,33.438,0,0,0-8.764.615.214.214,0,0,0,.012.41,33.377,33.377,0,0,0,8.785.108A.567.567,0,0,0,568.542,203.622Z" fill="#526d82"/>
    <path id="Path_35" data-name="Path 35" d="M566.442,200.248c-2.566-.137-5.279-.322-7.737.547a.107.107,0,0,0,.006.205c2.506.725,5.2.383,7.756.1A.425.425,0,0,0,566.442,200.248Z" fill="#526d82"/>
    <path id="Path_36" data-name="Path 36" d="M563.2,196.181a18.474,18.474,0,0,0-8.332.686.143.143,0,0,0,.008.273,18.474,18.474,0,0,0,8.357.2A.607.607,0,0,0,563.2,196.181Z" fill="#526d82"/>
    <path id="Path_37" data-name="Path 37" d="M561.794,192.872a38.6,38.6,0,0,0-8.14.448.142.142,0,0,0,.008.284,38.641,38.641,0,0,0,8.153-.023A.355.355,0,0,0,561.794,192.872Z" fill="#526d82"/>
    <path id="Path_38" data-name="Path 38" d="M556.97,189.294a33.175,33.175,0,0,0-8.613.574.179.179,0,0,0,.01.342,33.175,33.175,0,0,0,8.632.076A.5.5,0,0,0,556.97,189.294Z" fill="#526d82"/>
    <path id="Path_39" data-name="Path 39" d="M554.367,188.294c-4.035-.1-8.669-.483-12.6.546a.107.107,0,0,0,.006.205c3.986.8,8.593.145,12.611-.184A.284.284,0,0,0,554.367,188.294Z" fill="#526d82"/>
    <path id="Path_40" data-name="Path 40" d="M551.567,185.479a75.214,75.214,0,0,0-15.285.726.036.036,0,0,0,0,.071,75.253,75.253,0,0,0,15.3-.159A.319.319,0,0,0,551.567,185.479Z" fill="#526d82"/>
    <path id="Path_41" data-name="Path 41" d="M546.758,182.4a49.7,49.7,0,0,0-8.007.137,30.307,30.307,0,0,0-6.853.79.036.036,0,0,0,0,.069,30.358,30.358,0,0,0,6.887.393,49.8,49.8,0,0,0,8-.327A.532.532,0,0,0,546.758,182.4Z" fill="#526d82"/>
    <path id="Path_42" data-name="Path 42" d="M538.126,180.72a89.276,89.276,0,0,0-14.426.736.142.142,0,0,0,.008.284,89.44,89.44,0,0,0,14.445-.1A.461.461,0,0,0,538.126,180.72Z" fill="#526d82"/>
    <path id="Path_43" data-name="Path 43" d="M539.619,276.8c-4.215-.114-9.6-.617-13.6.86a.143.143,0,0,0,.008.273c4.087,1.242,9.436.428,13.629.071A.6.6,0,0,0,539.619,276.8Z" fill="#526d82"/>
    <path id="Path_44" data-name="Path 44" d="M539.585,281.255a25.521,25.521,0,0,0-11.31.6.179.179,0,0,0,.01.342,25.527,25.527,0,0,0,11.325-.054A.464.464,0,0,0,539.585,281.255Z" fill="#526d82"/>
    <path id="Path_45" data-name="Path 45" d="M537.309,285.952a21.192,21.192,0,0,0-7.738.512.107.107,0,0,0,.006.205,21.191,21.191,0,0,0,7.755.063A.39.39,0,0,0,537.309,285.952Z" fill="#526d82"/>
    <path id="Path_46" data-name="Path 46" d="M535.51,291.105a5.8,5.8,0,0,0-4.817.385.392.392,0,0,0,.019.673,5.789,5.789,0,0,0,4.831.105A.678.678,0,0,0,535.51,291.105Z" fill="#526d82"/>
    <path id="Path_47" data-name="Path 47" d="M534.743,296.843a8.81,8.81,0,0,0-4.878.415.179.179,0,0,0,.01.342,8.8,8.8,0,0,0,4.894.132A.465.465,0,0,0,534.743,296.843Z" fill="#526d82"/>
    <path id="Path_48" data-name="Path 48" d="M535.905,301.693a18.973,18.973,0,0,0-6.5.34.285.285,0,0,0,.016.546,18.983,18.983,0,0,0,6.511-.036A.425.425,0,0,0,535.905,301.693Z" fill="#526d82"/>
    <path id="Path_49" data-name="Path 49" d="M534.322,306.28a18.741,18.741,0,0,0-5.634.385.25.25,0,0,0,.014.478,18.684,18.684,0,0,0,5.646.058A.461.461,0,0,0,534.322,306.28Z" fill="#526d82"/>
    <path id="Path_50" data-name="Path 50" d="M535.1,310.239a12.092,12.092,0,0,0-5.017.248.25.25,0,0,0,.014.478,12.092,12.092,0,0,0,5.022-.043A.357.357,0,0,0,535.1,310.239Z" fill="#526d82"/>
    <path id="Path_51" data-name="Path 51" d="M534.784,313.6c-1.755-.688-3.739-.244-5.5.211a.393.393,0,0,0,.022.752c1.783.353,3.788.681,5.5-.107A.5.5,0,0,0,534.784,313.6Z" fill="#526d82"/>
    <path id="Path_52" data-name="Path 52" d="M535.065,318.823a26.641,26.641,0,0,0-8.1.257.319.319,0,0,0,.019.638,26.661,26.661,0,0,0,8.1-.212A.357.357,0,0,0,535.065,318.823Z" fill="#526d82"/>
    <path id="Path_53" data-name="Path 53" d="M535.021,323.218a24.172,24.172,0,0,0-7.353.31.142.142,0,0,0,.009.284,24.171,24.171,0,0,0,7.358-.116A.25.25,0,0,0,535.021,323.218Z" fill="#526d82"/>
    <path id="Path_54" data-name="Path 54" d="M535.329,326.276a22.118,22.118,0,0,0-4.71.349.107.107,0,0,0,.006.213,22.078,22.078,0,0,0,4.723.076A.319.319,0,0,0,535.329,326.276Z" fill="#526d82"/>
    <path id="Path_55" data-name="Path 55" d="M535.56,329.366a11.71,11.71,0,0,0-2.888-.288,3.078,3.078,0,0,0-2.227.823.186.186,0,0,0,.008.251,3.078,3.078,0,0,0,2.27.693,11.709,11.709,0,0,0,2.867-.454A.536.536,0,0,0,535.56,329.366Z" fill="#526d82"/>
    <path id="Path_56" data-name="Path 56" d="M534.823,333.479a20.843,20.843,0,0,0-6.762.308.179.179,0,0,0,.01.342,20.836,20.836,0,0,0,6.768-.084A.283.283,0,0,0,534.823,333.479Z" fill="#526d82"/>
    <path id="Path_57" data-name="Path 57" d="M535.051,336.441a43.581,43.581,0,0,0-6.283.359.142.142,0,0,0,.008.283,43.635,43.635,0,0,0,6.294-.005A.319.319,0,0,0,535.051,336.441Z" fill="#526d82"/>
    <path id="Path_58" data-name="Path 58" d="M535.076,340.273a13.317,13.317,0,0,0-5.656.266.107.107,0,0,0,.006.2,13.329,13.329,0,0,0,5.662-.061A.214.214,0,0,0,535.076,340.273Z" fill="#526d82"/>
    <path id="Path_59" data-name="Path 59" d="M534.747,341.794c-1.156-.259-2.609-.555-3.491.411a.144.144,0,0,0,.005.2c.938.914,2.372.533,3.51.209A.429.429,0,0,0,534.747,341.794Z" fill="#526d82"/>
    <path id="Path_60" data-name="Path 60" d="M534.712,344.5c-2.445-.15-5.295-.407-7.6.509a.144.144,0,0,0,.008.274c2.359.782,5.191.359,7.621.068A.426.426,0,0,0,534.712,344.5Z" fill="#526d82"/>
    <path id="Path_61" data-name="Path 61" d="M533.956,348.025a11.156,11.156,0,0,0-5.173.509.143.143,0,0,0,.008.273,11.155,11.155,0,0,0,5.194.21A.5.5,0,0,0,533.956,348.025Z" fill="#526d82"/>
    <path id="Path_62" data-name="Path 62" d="M534.872,352.369a17.042,17.042,0,0,0-6.221.17.284.284,0,0,0,.016.567,17.048,17.048,0,0,0,6.221-.19A.286.286,0,0,0,534.872,352.369Z" fill="#526d82"/>
    <path id="Path_63" data-name="Path 63" d="M532.35,356.8a20.255,20.255,0,0,0-3.635.22.25.25,0,0,0,.013.478,20.237,20.237,0,0,0,3.643.01A.354.354,0,0,0,532.35,356.8Z" fill="#526d82"/>
    <path id="Path_64" data-name="Path 64" d="M535.983,359.141a12.543,12.543,0,0,0-6.877.541.143.143,0,0,0,.008.273,12.54,12.54,0,0,0,6.9.143A.5.5,0,0,0,535.983,359.141Z" fill="#526d82"/>
    <path id="Path_65" data-name="Path 65" d="M534.69,363.486a40.578,40.578,0,0,0-8.426.493.071.071,0,0,0,0,.141,40.56,40.56,0,0,0,8.44,0A.319.319,0,0,0,534.69,363.486Z" fill="#526d82"/>
    <path id="Path_66" data-name="Path 66" d="M536.083,367.165a55.433,55.433,0,0,0-7.856.37.177.177,0,0,0,.01.354,55.472,55.472,0,0,0,7.865-.086A.319.319,0,0,0,536.083,367.165Z" fill="#526d82"/>
    <path id="Path_67" data-name="Path 67" d="M536.281,370.072a12.075,12.075,0,0,0-7.236.406.249.249,0,0,0,.012.428,12.076,12.076,0,0,0,7.247-.014A.429.429,0,0,0,536.281,370.072Z" fill="#526d82"/>
    <path id="Path_68" data-name="Path 68" d="M534.677,373.981a18.722,18.722,0,0,0-5.88.375.214.214,0,0,0,.012.41,18.692,18.692,0,0,0,5.892.035A.428.428,0,0,0,534.677,373.981Z" fill="#526d82"/>
    <path id="Path_69" data-name="Path 69" d="M534.053,378.107a21.448,21.448,0,0,0-7.264.381.143.143,0,0,0,.008.273,21.431,21.431,0,0,0,7.274-.039A.321.321,0,0,0,534.053,378.107Z" fill="#526d82"/>
    <path id="Path_70" data-name="Path 70" d="M535.643,381.59a31.148,31.148,0,0,0-8.475.429.179.179,0,0,0,.01.342,31.194,31.194,0,0,0,8.485-.062A.355.355,0,0,0,535.643,381.59Z" fill="#526d82"/>
    <path id="Path_71" data-name="Path 71" d="M535.244,384.973c-2.176-.316-4.973-.71-6.947.444a.035.035,0,0,0,0,.061c2.037,1.037,4.807.482,6.961.041A.285.285,0,0,0,535.244,384.973Z" fill="#526d82"/>
    <path id="Path_72" data-name="Path 72" d="M535.772,387.75a10.361,10.361,0,0,0-4.25-.251,16.181,16.181,0,0,0-4.176.666.178.178,0,0,0,.01.341,16.207,16.207,0,0,0,4.208.424,10.373,10.373,0,0,0,4.228-.5A.358.358,0,0,0,535.772,387.75Z" fill="#526d82"/>
    <path id="Path_73" data-name="Path 73" d="M535.394,392.755a28.372,28.372,0,0,0-7.607.438.143.143,0,0,0,.008.273,28.336,28.336,0,0,0,7.619,0A.354.354,0,0,0,535.394,392.755Z" fill="#526d82"/>
    <path id="Path_74" data-name="Path 74" d="M534.224,396.83a11.937,11.937,0,0,0-4.892.323.144.144,0,0,0,.008.274,11.957,11.957,0,0,0,4.9.04A.319.319,0,0,0,534.224,396.83Z" fill="#526d82"/>
    <path id="Path_75" data-name="Path 75" d="M533.833,399.822a12.679,12.679,0,0,0-5.4.4.107.107,0,0,0,.006.205,12.7,12.7,0,0,0,5.417.082A.357.357,0,0,0,533.833,399.822Z" fill="#526d82"/>
    <path id="Path_76" data-name="Path 76" d="M533.306,403.076a16.508,16.508,0,0,0-4.86.516c-.034.009-.035.068,0,.073a16.757,16.757,0,0,0,4.949-.035C533.734,403.57,533.6,403.1,533.306,403.076Z" fill="#526d82"/>
    <path id="Path_77" data-name="Path 77" d="M533.838,405.474c-2.092-.692-4.728.155-6.719.831-.108.036-.089.226.034.208,2.184-.325,4.577.03,6.7-.493C534.147,405.948,534.083,405.555,533.838,405.474Z" fill="#526d82"/>
    <path id="Path_78" data-name="Path 78" d="M534.519,407.614a11.825,11.825,0,0,0-6.92.454.178.178,0,0,0,.057.346,28.131,28.131,0,0,0,6.88-.185C534.864,408.17,534.8,407.689,534.519,407.614Z" fill="#526d82"/>
    <path id="Path_79" data-name="Path 79" d="M534.7,410.161a18.69,18.69,0,0,0-7.243.381.143.143,0,0,0,.008.273,18.7,18.7,0,0,0,7.253-.039A.321.321,0,0,0,534.7,410.161Z" fill="#526d82"/>
    <path id="Path_80" data-name="Path 80" d="M533.747,412.153a23.833,23.833,0,0,0-7.211.551.107.107,0,0,0,.006.2,23.865,23.865,0,0,0,7.231.132A.464.464,0,0,0,533.747,412.153Z" fill="#526d82"/>
    <path id="Path_81" data-name="Path 81" d="M534.537,415.024a44.092,44.092,0,0,0-8.222.522.142.142,0,0,0,.008.283,44.119,44.119,0,0,0,8.239.045A.425.425,0,0,0,534.537,415.024Z" fill="#526d82"/>
    <path id="Path_82" data-name="Path 82" d="M535.62,417.045a31.315,31.315,0,0,0-5.537-.225c-1.754.055-3.864-.051-5.473.681a.179.179,0,0,0,.01.341c1.649.638,3.749.41,5.5.363a31.266,31.266,0,0,0,5.515-.545A.321.321,0,0,0,535.62,417.045Z" fill="#526d82"/>
    <path id="Path_83" data-name="Path 83" d="M533.4,419.807a37.108,37.108,0,0,0-8.336.419.142.142,0,0,0,.008.283,37.149,37.149,0,0,0,8.346-.064A.319.319,0,0,0,533.4,419.807Z" fill="#526d82"/>
    <path id="Path_84" data-name="Path 84" d="M533.194,422.1a33.441,33.441,0,0,0-7.5.5.071.071,0,0,0,0,.142,33.426,33.426,0,0,0,7.521.066A.354.354,0,0,0,533.194,422.1Z" fill="#526d82"/>
    <path id="Path_85" data-name="Path 85" d="M534.12,423.542a36.776,36.776,0,0,0-10.676.453.072.072,0,0,0,0,.137,36.826,36.826,0,0,0,10.684-.165A.213.213,0,0,0,534.12,423.542Z" fill="#526d82"/>
    <path id="Path_86" data-name="Path 86" d="M534.45,425.4c-4.082-.272-9.606-.869-13.45.749a.144.144,0,0,0,.008.274c3.932,1.393,9.422.477,13.471-.031A.5.5,0,0,0,534.45,425.4Z" fill="#526d82"/>
    <path id="Path_87" data-name="Path 87" d="M532.014,429.08c-3.923.115-7.865.119-11.758.624a.036.036,0,0,0,0,.071c3.915.279,7.852.055,11.774-.057A.319.319,0,0,0,532.014,429.08Z" fill="#526d82"/>
    <path id="Path_88" data-name="Path 88" d="M534.512,431.369c-2.351-.127-4.7,0-7.053.063a20.687,20.687,0,0,0-6.048.638.072.072,0,0,0,0,.137,20.732,20.732,0,0,0,6.075.287c2.352-.068,4.7-.082,7.045-.345A.39.39,0,0,0,534.512,431.369Z" fill="#526d82"/>
    <path id="Path_89" data-name="Path 89" d="M536.627,437.642c-4.785-.145-10.331-.582-14.961.83a.178.178,0,0,0,.009.341c4.7,1.141,10.223.384,14.985-.037A.568.568,0,0,0,536.627,437.642Z" fill="#526d82"/>
    <path id="Path_90" data-name="Path 90" d="M536.488,445.919c-5.5-.17-12.077-.742-17.4.827a.107.107,0,0,0,.006.2c5.4,1.258,11.948.306,17.42-.181A.426.426,0,0,0,536.488,445.919Z" fill="#526d82"/>
    <path id="Path_91" data-name="Path 91" d="M532.487,451.4a49.14,49.14,0,0,0-11.924.6.107.107,0,0,0,.006.205,49.222,49.222,0,0,0,11.939-.094A.354.354,0,0,0,532.487,451.4Z" fill="#526d82"/>
    <path id="Path_92" data-name="Path 92" d="M532.3,458.131c-4.124-.013-8.167.183-12.277.5a.106.106,0,0,0,.006.212c4.122.076,8.169.038,12.285-.213A.248.248,0,0,0,532.3,458.131Z" fill="#526d82"/>
    <path id="Path_93" data-name="Path 93" d="M532.6,442.285a77.063,77.063,0,0,0-11.328.612.106.106,0,0,0,.007.212,77.116,77.116,0,0,0,11.344-.044A.39.39,0,0,0,532.6,442.285Z" fill="#526d82"/>
    <path id="Path_94" data-name="Path 94" d="M535.612,435.249a87.146,87.146,0,0,0-14.535.846.107.107,0,0,0,.006.213,87.18,87.18,0,0,0,14.56,0A.532.532,0,0,0,535.612,435.249Z" fill="#526d82"/>
    <path id="Path_95" data-name="Path 95" d="M533.154,454.832a54.873,54.873,0,0,0-10.965.746.071.071,0,0,0,0,.136,54.749,54.749,0,0,0,10.989.11A.5.5,0,0,0,533.154,454.832Z" fill="#526d82"/>
    <path id="Path_96" data-name="Path 96" d="M535.87,460.169a43.89,43.89,0,0,0-14.3.653.143.143,0,0,0,.008.273,43.88,43.88,0,0,0,14.319-.175A.392.392,0,0,0,535.87,460.169Z" fill="#526d82"/>
    <path id="Path_97" data-name="Path 97" d="M531.91,464.134a46.211,46.211,0,0,0-10.571.625.177.177,0,0,0,.01.354,46.248,46.248,0,0,0,10.59.013A.5.5,0,0,0,531.91,464.134Z" fill="#526d82"/>
    <path id="Path_98" data-name="Path 98" d="M533.725,468.053a53.772,53.772,0,0,0-11.516.652.177.177,0,0,0,.011.354,53.774,53.774,0,0,0,11.534-.015A.5.5,0,0,0,533.725,468.053Z" fill="#526d82"/>
    <path id="Path_99" data-name="Path 99" d="M531.566,471.838a65.235,65.235,0,0,0-10.391.336.142.142,0,0,0,.008.283,65.342,65.342,0,0,0,10.393-.265A.177.177,0,0,0,531.566,471.838Z" fill="#526d82"/>
    <path id="Path_100" data-name="Path 100" d="M534.108,474.731a73.036,73.036,0,0,0-11.895.628.142.142,0,0,0,.008.283,73.211,73.211,0,0,0,11.911-.061A.425.425,0,0,0,534.108,474.731Z" fill="#526d82"/>
    <path id="Path_101" data-name="Path 101" d="M533.67,479.2a73.3,73.3,0,0,0-13.221.56.142.142,0,0,0,.008.283,73.473,73.473,0,0,0,13.231-.2A.319.319,0,0,0,533.67,479.2Z" fill="#526d82"/>
    <path id="Path_102" data-name="Path 102" d="M532.88,484.6a46.165,46.165,0,0,0-12.11.673.107.107,0,0,0,.006.2,46.161,46.161,0,0,0,12.129-.028A.425.425,0,0,0,532.88,484.6Z" fill="#526d82"/>
    <path id="Path_103" data-name="Path 103" d="M536.589,482.081c-4.523-.225-10.3-.958-14.573.852a.143.143,0,0,0,.008.273c4.366,1.56,10.109.493,14.6.008A.567.567,0,0,0,536.589,482.081Z" fill="#526d82"/>
    <path id="Path_104" data-name="Path 104" d="M534.3,488.94c-3.945-.638-9.477-.708-13.211.862a.107.107,0,0,0,.006.2c3.818,1.351,9.337.962,13.239.1A.607.607,0,0,0,534.3,488.94Z" fill="#526d82"/>
    <path id="Path_105" data-name="Path 105" d="M532.845,493.829a26.467,26.467,0,0,0-11.078.423.178.178,0,0,0,.01.341,26.458,26.458,0,0,0,11.084-.218A.285.285,0,0,0,532.845,493.829Z" fill="#526d82"/>
    <path id="Path_106" data-name="Path 106" d="M532.514,498.071a55,55,0,0,0-11.328.611.107.107,0,0,0,.006.213,55.008,55.008,0,0,0,11.345-.045A.39.39,0,0,0,532.514,498.071Z" fill="#526d82"/>
    <path id="Path_107" data-name="Path 107" d="M533.356,502.015a38.114,38.114,0,0,0-6.48-.224c-1.833.074-3.871.046-5.509.938a.251.251,0,0,0,.012.429c1.687.8,3.72.65,5.554.617a38.049,38.049,0,0,0,6.456-.6A.607.607,0,0,0,533.356,502.015Z" fill="#526d82"/>
    <path id="Path_108" data-name="Path 108" d="M530.905,507.832c-4.047-.382-8.352-.544-12.3.573a.107.107,0,0,0,.006.2c4.01.887,8.3.475,12.315-.14A.319.319,0,0,0,530.905,507.832Z" fill="#526d82"/>
    <path id="Path_109" data-name="Path 109" d="M533.849,504.993a62.994,62.994,0,0,0-12.461.68.107.107,0,0,0,.006.213,63,63,0,0,0,12.479-.043A.425.425,0,0,0,533.849,504.993Z" fill="#526d82"/>
    <path id="Path_110" data-name="Path 110" d="M533.6,511.566c-4.063-.468-8.359.286-12.4.695a.142.142,0,0,0,.008.284c4.063.175,8.394.679,12.422-.023A.5.5,0,0,0,533.6,511.566Z" fill="#526d82"/>
    <path id="Path_111" data-name="Path 111" d="M531.229,617.037c-2.253.028-4.711-.02-6.831.807a.178.178,0,0,0,.01.341c2.166.7,4.615.513,6.866.411A.78.78,0,0,0,531.229,617.037Z" fill="#526d82"/>
    <path id="Path_112" data-name="Path 112" d="M528.316,614.368a23.354,23.354,0,0,0-6.666.306.214.214,0,0,0,.012.41,23.344,23.344,0,0,0,6.672-.079A.319.319,0,0,0,528.316,614.368Z" fill="#526d82"/>
    <path id="Path_113" data-name="Path 113" d="M529.7,609.837a28.177,28.177,0,0,0-8.32.633.072.072,0,0,0,0,.137,28.208,28.208,0,0,0,8.343.151A.461.461,0,0,0,529.7,609.837Z" fill="#526d82"/>
    <path id="Path_114" data-name="Path 114" d="M529.955,607.441c-.916-.871-2.473-.694-3.661-.662a7.281,7.281,0,0,0-3.934.891.181.181,0,0,0,.009.306,7.329,7.329,0,0,0,3.983.839c1.207.009,2.706.169,3.622-.722A.467.467,0,0,0,529.955,607.441Z" fill="#526d82"/>
    <path id="Path_115" data-name="Path 115" d="M529.736,604.624a42.931,42.931,0,0,0-8.867.717.107.107,0,0,0,.006.213,42.945,42.945,0,0,0,8.893.2A.567.567,0,0,0,529.736,604.624Z" fill="#526d82"/>
    <path id="Path_116" data-name="Path 116" d="M529.137,601.542c-2.447-1.282-5.645-.176-7.837,1.148-.135.082-.037.312.116.256a11.189,11.189,0,0,1,3.925-.724c1.2.007,2.4.24,3.589.185A.464.464,0,0,0,529.137,601.542Z" fill="#526d82"/>
    <path id="Path_117" data-name="Path 117" d="M528.856,596.494c-1.926-.336-4.908-.345-6.227,1.387a.109.109,0,0,0,.081.18,15.926,15.926,0,0,0,2.968-.451c1.027-.113,2.054-.26,3.089-.278C529.236,597.324,529.337,596.578,528.856,596.494Z" fill="#526d82"/>
    <path id="Path_118" data-name="Path 118" d="M528.468,593.536a29.493,29.493,0,0,0-7,.835c-.122.023-.08.208.035.208a29.472,29.472,0,0,0,7.066-.419C528.942,594.071,528.8,593.556,528.468,593.536Z" fill="#526d82"/>
    <path id="Path_119" data-name="Path 119" d="M529.719,591.046a43.114,43.114,0,0,0-8.7.82c-.082.014-.053.137.023.139a43.305,43.305,0,0,0,8.763-.4C530.141,591.542,530.018,591.058,529.719,591.046Z" fill="#526d82"/>
    <path id="Path_120" data-name="Path 120" d="M529.821,588.177c-2.8.154-5.518.531-8.292.961-.174.027-.179.292.008.284,2.8-.12,5.526-.282,8.3-.678C530.189,588.693,530.194,588.157,529.821,588.177Z" fill="#526d82"/>
    <path id="Path_121" data-name="Path 121" d="M530.517,585.927a31.2,31.2,0,0,0-9.087.608.107.107,0,0,0,.006.205,31.564,31.564,0,0,0,9.207-.051C531.116,586.611,530.91,585.964,530.517,585.927Z" fill="#526d82"/>
    <path id="Path_122" data-name="Path 122" d="M530.441,583.27a20.537,20.537,0,0,0-4.572.33,8.275,8.275,0,0,0-3.388.908.109.109,0,0,0,.031.194,9.692,9.692,0,0,0,4.005.182,18.2,18.2,0,0,0,4.1-.574C531.227,584.131,531.006,583.318,530.441,583.27Z" fill="#526d82"/>
    <path id="Path_123" data-name="Path 123" d="M528.992,578.913a23.969,23.969,0,0,0-7.751.68.072.072,0,0,0,0,.137,23.95,23.95,0,0,0,7.775.1A.461.461,0,0,0,528.992,578.913Z" fill="#526d82"/>
    <path id="Path_124" data-name="Path 124" d="M527.335,573.891a18.29,18.29,0,0,0-6.061.658.107.107,0,0,0,.006.205,18.545,18.545,0,0,0,6.192-.031C527.983,574.619,527.769,573.931,527.335,573.891Z" fill="#526d82"/>
    <path id="Path_125" data-name="Path 125" d="M530.077,570.873a37.742,37.742,0,0,0-7.574,1.089.179.179,0,0,0,.01.342,15.764,15.764,0,0,0,7.7-.6A.427.427,0,0,0,530.077,570.873Z" fill="#526d82"/>
    <path id="Path_126" data-name="Path 126" d="M529.975,567.594a27.148,27.148,0,0,0-7.909,1.277.071.071,0,0,0,.023.139,27.258,27.258,0,0,0,8.012-.654A.392.392,0,0,0,529.975,567.594Z" fill="#526d82"/>
    <path id="Path_127" data-name="Path 127" d="M529.342,564.828a16.992,16.992,0,0,0-6.146.654.429.429,0,0,0,.024.82,16.876,16.876,0,0,0,6.163-.057A.709.709,0,0,0,529.342,564.828Z" fill="#526d82"/>
    <path id="Path_128" data-name="Path 128" d="M529.434,561.5a29.01,29.01,0,0,0-7.359.533.107.107,0,0,0,.006.213,29.126,29.126,0,0,0,7.433-.261C529.813,561.927,529.687,561.527,529.434,561.5Z" fill="#526d82"/>
    <path id="Path_129" data-name="Path 129" d="M529.989,558.169a16.894,16.894,0,0,0-8.787,1.182.142.142,0,0,0,.046.277,54.884,54.884,0,0,0,8.759-.844A.322.322,0,0,0,529.989,558.169Z" fill="#526d82"/>
    <path id="Path_130" data-name="Path 130" d="M530.209,555.658a40.55,40.55,0,0,0-8.871.54.071.071,0,0,0,0,.142,40.514,40.514,0,0,0,8.888.026A.354.354,0,0,0,530.209,555.658Z" fill="#526d82"/>
    <path id="Path_131" data-name="Path 131" d="M530.482,552.173a58.975,58.975,0,0,0-8.485.733.071.071,0,0,0,0,.142,58.823,58.823,0,0,0,8.5-.308A.284.284,0,0,0,530.482,552.173Z" fill="#526d82"/>
    <path id="Path_132" data-name="Path 132" d="M530.593,549.34a47.01,47.01,0,0,0-9.062.489.142.142,0,0,0,.008.283,47.015,47.015,0,0,0,9.073-.134A.319.319,0,0,0,530.593,549.34Z" fill="#526d82"/>
    <path id="Path_133" data-name="Path 133" d="M529.784,546.753c-2.485-1.06-5.3-.63-7.793.155-.111.034-.088.221.034.208,2.581-.283,5.022.228,7.583.369A.393.393,0,0,0,529.784,546.753Z" fill="#526d82"/>
    <path id="Path_134" data-name="Path 134" d="M530.06,543.844a41.4,41.4,0,0,0-5.119.382,7.557,7.557,0,0,0-3.768,1.008.072.072,0,0,0,0,.123c1.314.589,2.749.3,4.145.166a39.983,39.983,0,0,0,4.9-.709C530.784,544.691,530.6,543.844,530.06,543.844Z" fill="#526d82"/>
    <path id="Path_135" data-name="Path 135" d="M529.4,540.694a27.508,27.508,0,0,0-7.41.928c-.243.048-.161.414.069.416a27.435,27.435,0,0,0,7.478-.512C530.031,541.389,529.85,540.729,529.4,540.694Z" fill="#526d82"/>
    <path id="Path_136" data-name="Path 136" d="M529.645,539.425a20.925,20.925,0,0,0-8.239-.472.107.107,0,0,0,.006.213,37.012,37.012,0,0,1,8.064.947A.354.354,0,0,0,529.645,539.425Z" fill="#526d82"/>
    <path id="Path_137" data-name="Path 137" d="M529.189,536.363c-3.032-.737-6.073-.141-9.011.7a.142.142,0,0,0,.046.277c2.957-.259,5.931.022,8.884-.209A.391.391,0,0,0,529.189,536.363Z" fill="#526d82"/>
    <path id="Path_138" data-name="Path 138" d="M529.689,533.664a9.237,9.237,0,0,0-7.386.831.214.214,0,0,0,.118.393c2.4-.086,4.776-.384,7.179-.386A.427.427,0,0,0,529.689,533.664Z" fill="#526d82"/>
    <path id="Path_139" data-name="Path 139" d="M531.928,531.1a23.417,23.417,0,0,0-10.417.571c-.285.074-.186.473.08.485a77.957,77.957,0,0,0,10.219.061C532.417,532.171,532.587,531.229,531.928,531.1Z" fill="#526d82"/>
    <path id="Path_140" data-name="Path 140" d="M529.356,528.809c-2.547-.34-6.063-.735-8.5.216a.286.286,0,0,0,.016.546c2.422.891,5.9.455,8.4.077C529.692,529.583,529.878,528.879,529.356,528.809Z" fill="#526d82"/>
    <path id="Path_141" data-name="Path 141" d="M531.832,526.794a34.208,34.208,0,0,0-10.6.477.107.107,0,0,0,.006.205,34.111,34.111,0,0,0,10.625.239A.461.461,0,0,0,531.832,526.794Z" fill="#526d82"/>
    <path id="Path_142" data-name="Path 142" d="M530.638,524.738c-2.953-.214-5.918-.117-8.876-.165a.178.178,0,0,0-.037.35,28.093,28.093,0,0,0,8.934.524A.355.355,0,0,0,530.638,524.738Z" fill="#526d82"/>
    <path id="Path_143" data-name="Path 143" d="M531.6,521.7a25.884,25.884,0,0,0-10.917.241c-.166.035-.1.27.046.278,3.607.17,7.182.425,10.79.25A.392.392,0,0,0,531.6,521.7Z" fill="#526d82"/>
    <path id="Path_144" data-name="Path 144" d="M529.495,518.067a40.512,40.512,0,0,0-7.969-.135.5.5,0,0,0-.1.978,14.685,14.685,0,0,0,8.268.335C530.405,519.1,530.119,518.112,529.495,518.067Z" fill="#526d82"/>
    <path id="Path_145" data-name="Path 145" d="M532.09,516.224c-3.287-.288-6.779-.637-10.035,0-.036.007-.029.059,0,.068,3.2.919,6.748.861,10.059.85C532.723,517.143,532.665,516.275,532.09,516.224Z" fill="#526d82"/>
    <path id="Path_146" data-name="Path 146" d="M530.593,514.35a25.648,25.648,0,0,0-8.021-.427.142.142,0,0,0,.009.284,48.472,48.472,0,0,1,7.894.625C530.785,514.875,530.91,514.426,530.593,514.35Z" fill="#526d82"/>
  </g>
</svg>
