<svg xmlns="http://www.w3.org/2000/svg" width="156.691" height="171.729" viewBox="0 0 156.691 171.729">
  <g id="tomato" transform="matrix(0.875, 0.485, -0.485, 0.875, -21.814, -188.775)">
    <path id="Path_712" data-name="Path 712" d="M272.786,144.093a28.143,28.143,0,0,0-20.325,1.824c-2.038.945-4.029,1.932-6.068,2.8-2.529-.5-5.08-.775-7.644-1.09-2.854-.352-6.161-1.014-8.955-.162-.007,0-.01.008-.017.012a15.561,15.561,0,0,0-2.118-.921.277.277,0,0,0-.3.438c.177.189.362.37.552.549a17.282,17.282,0,0,0-3.244.667c-.1-2.784.132-5.663.044-8.606-.171-5.721-3.29-9.921-5.021-15.183-.088-.268-.451-.094-.436.141.442,6.872-.168,13.655-.505,20.508-.269,5.453-.667,10.887,1.647,16,.042.093.174.025.14-.067-2.522-6.8-1.373-13.541-.705-20.53a76.224,76.224,0,0,0,.364-10.005,35.076,35.076,0,0,0-.239-3.635l0-.012c.251.522.555,1.047.643,1.254,1.241,2.9,2.743,5.7,3.176,8.866.467,3.414,0,6.828-.027,10.25-.028,3.873.52,8.206,3.37,11.041a7.343,7.343,0,0,0-4.545,3.591,4.01,4.01,0,0,1-.858-.068c-2.944-.619-3.278-3.009-3.729-5.23a49.185,49.185,0,0,1-.876-7.988,83.312,83.312,0,0,1,.728-13.98c.032-.243-.365-.34-.426-.1-1.293,5.185-3.245,10.464-3.688,15.839a8.444,8.444,0,0,0-3.343.956,35.477,35.477,0,0,0-3.494,1.551c-.1-.122-.215-.236-.317-.362-2.352-2.915-4-6.334-6.116-9.414-3.382-4.911-8.188-8.934-14.51-8a.423.423,0,0,0,.037.835c8.288.377,12.028,7.811,15.223,14.389.683,1.407,1.43,2.794,2.233,4.149-1.733.8-3.544.809-5.332,1.369a.186.186,0,0,0-.055.036c-.432-.317-.869-.628-1.321-.919-3.632-2.337-7.535-2.84-11.757-2.39a.434.434,0,0,0-.072.829c2.616.766,5.264,1.3,7.582,2.823a13.61,13.61,0,0,1,1.185.885c-8.068.18-16.109,7.844-20.338,14.015a44.179,44.179,0,0,0-5.926,12.871c-1.184,4.155-2.354,8.887-2,13.213.035.427.62.321.692-.031.892-4.283,1.007-8.584,2.249-12.837a43.483,43.483,0,0,1,5.61-12.186,34.807,34.807,0,0,1,8.723-8.931c3.688-2.605,7.648-3.516,11.656-5.345a.354.354,0,0,0,.116-.085c.945.86,1.834,1.784,2.8,2.617a13.6,13.6,0,0,0,4.324,2.532,18.937,18.937,0,0,0-12.776,3.413c-.448.334.039.955.505.775a44.832,44.832,0,0,1,7.359-2.581c1.987-.4,4.02-.361,6.012-.643a.209.209,0,0,0,.145.2c2.6.787,5.543,1.009,8.231,1.644a14.866,14.866,0,0,0,7.822-.255c6.538-1.927,11.574-6.3,18.611-6.7a.323.323,0,0,0,.053-.617,11.239,11.239,0,0,0-2.423-.293,3.141,3.141,0,0,0,.383-.634c4.686-3.156,8.528-3.988,14.219-3.26a.239.239,0,0,0,.1-.461,10.846,10.846,0,0,0-2.962-.709c1.871-.868,3.692-1.834,5.546-2.74,2.965,1.124,5.738,1.73,8.578,3.361a64.876,64.876,0,0,1,7.879,5.833c.335.266.8-.247.5-.558-3.786-3.933-10.484-8.994-16.427-8.895a40.844,40.844,0,0,1,4.276-1.8,45.175,45.175,0,0,1,15.332-2.765C273.144,145.194,273.429,144.28,272.786,144.093Zm-63.515,8.8c1.55-.768,2.656-1.959,4.414-2.211-.057.833-.079,1.668-.052,2.506.056,1.781.1,3.923.321,5.971-2.065-2.054-4.521-3.615-6.541-5.752A3.931,3.931,0,0,0,209.27,152.894Zm-4.749,9.827a11.975,11.975,0,0,1-4.629-1.486,35.763,35.763,0,0,1-4.77-4.062,20.277,20.277,0,0,0-8.281-4.251,12.666,12.666,0,0,1,7.244.97c2.438,1.105,4.085,3.16,6.175,4.746a31.233,31.233,0,0,0,9.074,4.293A12.062,12.062,0,0,0,204.521,162.721Zm5.685.359a44.669,44.669,0,0,1-6.607-3.17,57.7,57.7,0,0,1-4.875-3.6c1.712.378,3.544-.516,4.921-1.556a37.1,37.1,0,0,0,6.7,8.351Zm.564.09a42.621,42.621,0,0,1-6.37-8.115c-1.978-3.415-3.381-7.137-5.389-10.542-2.345-3.974-5.633-7.695-10.04-9,6.437.2,10.589,7.062,13.576,12.239a46.911,46.911,0,0,0,4.23,6.515c2.037,2.462,4.907,3.875,7.154,6.11a.442.442,0,0,0,.2.112,15.558,15.558,0,0,0,.654,2.714q.074.208.156.393A29.027,29.027,0,0,1,210.77,163.17Zm9.564-.417a15.14,15.14,0,0,1-4.781.836,9.97,9.97,0,0,1-.935-3.278.371.371,0,0,0-.028-.5c-.013-.015-.028-.028-.041-.042a47.882,47.882,0,0,1-.214-6.61,48.854,48.854,0,0,1,1.249-8.886c.3-1.427.624-2.848.953-4.268-.086,1.561-.082,3.105-.117,3.8-.241,4.809-.475,11.341,1.492,15.855a4.445,4.445,0,0,0,3.332,2.756C220.94,162.533,220.637,162.648,220.334,162.753Zm17.754-14.417c2.467.126,4.911.467,7.359.773a32.243,32.243,0,0,1-4.634,1.5c-2.148.505-4.2.738-5.417,2.506a11.811,11.811,0,0,0-4.876-5.227C232.937,148.475,235.627,148.211,238.088,148.336Zm-13.414.116a17.892,17.892,0,0,0,3.631-.549,32.457,32.457,0,0,1,3.214,2.894,5.889,5.889,0,0,1,1.449,2.733l-1.7,3.465c-.8.751-2.35.782-3.416,1.024A15.754,15.754,0,0,1,224.674,148.452Zm9.5,9.372c-3.968.238-7.7,2.335-11.4,3.953a8.661,8.661,0,0,1,4.664-3.23c.013.012.024.025.037.036.191.169.415.021.479-.178.1-.027.2-.058.306-.084a13.239,13.239,0,0,0,3.206-.9,3.645,3.645,0,0,0,1.942-4.376,20.879,20.879,0,0,0-4.628-5.646,23.725,23.725,0,0,1,4.034,3.022,11.007,11.007,0,0,1,2.145,3.511.392.392,0,0,0,.116.338C235.521,155.7,235.449,157.1,234.176,157.825Zm24.159-11.48c-4.578,1.531-9.659,3.4-13.565,6.354a14.147,14.147,0,0,0-9.048,3.864,4.966,4.966,0,0,0,.049-2.33c2.067-2.033,5.121-1.68,7.741-2.489a59.039,59.039,0,0,0,8.652-3.852c5.129-2.543,10.307-3.971,15.769-3.523A42.5,42.5,0,0,0,258.335,146.345Z" transform="translate(-0.166 0)" fill="#526d82"/>
    <path id="Path_713" data-name="Path 713" d="M282.614,181.326a44.336,44.336,0,0,0-12.158-12.651c-4.953-3.426-11.65-6.625-17.81-5.39a.088.088,0,0,0,.007.174c12.359,2.224,23.137,8.543,29.445,19.708a40.128,40.128,0,0,1,5.048,16.512,40.776,40.776,0,0,1-.292,9.006,59.2,59.2,0,0,1-1.62,6.322,1.035,1.035,0,0,0-.617,1.062c1.028,11.022-5.212,21.084-13.894,27.4-9.814,7.137-21.2,10.089-32.967,12.249-5.971,1.1-11.935,2.216-17.9,3.319-6.051,1.118-11.954,1.529-17.923-.267-9.79-2.947-18.358-9.852-24.5-17.894A59.916,59.916,0,0,1,165.655,208.5c-.038-.554-.978-.514-.981.043-.123,21.3,13.864,42.947,33.77,50.952,12.139,4.881,24.436.916,36.714-1.331,12.157-2.224,26.047-4.032,35.857-11.939,17.944-14.46,16.937-34.248,17.284-36.385a42.354,42.354,0,0,0,.406-9.928A40.479,40.479,0,0,0,282.614,181.326Z" transform="translate(0 -9.743)" fill="#526d82"/>
    <path id="Path_714" data-name="Path 714" d="M189.114,184.452c-6.533,3.286-12.677,10.728-14.281,17.9-.013.057.078.086.106.038a82.7,82.7,0,0,1,5.842-9.336c2.5-3.18,5.557-5.577,8.618-8.169A.263.263,0,0,0,189.114,184.452Z" transform="translate(-2.555 -15.128)" fill="#526d82"/>
    <g id="Group_11" data-name="Group 11" transform="translate(191.756 153.625)">
      <path id="Path_715" data-name="Path 715" d="M207.554,167.6a18.845,18.845,0,0,0-3.469-2.406,33.873,33.873,0,0,1,3.4,2.5C207.547,167.742,207.609,167.646,207.554,167.6Z" transform="translate(-201.67 -163.915)" fill="#526d82"/>
      <path id="Path_716" data-name="Path 716" d="M203.5,164.875a14.914,14.914,0,0,0-1.742-.942C202.35,164.247,202.931,164.555,203.5,164.875Z" transform="translate(-201.084 -163.599)" fill="#526d82"/>
      <path id="Path_717" data-name="Path 717" d="M200.878,163.545c.219.083.436.178.653.275l-.624-.33C200.866,163.47,200.836,163.529,200.878,163.545Z" transform="translate(-200.858 -163.486)" fill="#526d82"/>
    </g>
    <path id="Path_718" data-name="Path 718" d="M221.5,166.838c-.032-.024-.07.03-.035.051,2.59,1.561,4.383,3.922,6.212,6.256.1.128.329-.015.242-.158C226.337,170.4,223.9,168.6,221.5,166.838Z" transform="translate(-14.282 -10.703)" fill="#526d82"/>
    <g id="Group_12" data-name="Group 12" transform="translate(201.917 148.144)">
      <path id="Path_719" data-name="Path 719" d="M214.438,156.206c.178.283.344.576.515.864-.153-.3-.313-.591-.459-.891C214.476,156.143,214.417,156.173,214.438,156.206Z" transform="translate(-214.433 -156.163)" fill="#526d82"/>
      <path id="Path_720" data-name="Path 720" d="M217.9,162.363c.359.675.719,1.349,1.085,2.014.018.033.071.007.052-.025C218.664,163.688,218.281,163.026,217.9,162.363Z" transform="translate(-215.305 -157.722)" fill="#526d82"/>
      <path id="Path_721" data-name="Path 721" d="M217.2,161.108c-.67-1.257-1.349-2.513-2.074-3.733C215.78,158.636,216.487,159.876,217.2,161.108Z" transform="translate(-214.608 -156.468)" fill="#526d82"/>
    </g>
    <path id="Path_722" data-name="Path 722" d="M212.607,152.5l-.591-.873c-.057-.085-.186.007-.145.094q.222.485.446.969C212.418,152.914,212.754,152.72,212.607,152.5Z" transform="translate(-11.87 -6.87)" fill="#526d82"/>
    <path id="Path_723" data-name="Path 723" d="M234.806,172.068a11.658,11.658,0,0,1-2.26-5.952c0-.033-.055-.029-.058,0a8.424,8.424,0,0,0,1.919,6.29C234.64,172.666,234.99,172.343,234.806,172.068Z" transform="translate(-17.052 -10.517)" fill="#526d82"/>
    <path id="Path_724" data-name="Path 724" d="M240.5,135.919c-.013-.028-.064-.015-.055.018,1.676,6.037-1.1,11.815-.068,17.815.039.229.354.155.344-.062C240.453,147.83,243.14,141.456,240.5,135.919Z" transform="translate(-18.982 -2.923)" fill="#526d82"/>
    <path id="Path_725" data-name="Path 725" d="M242.579,164.6c-.314-.741-.748-1.44-1.131-2.147-.03-.054-.131-.03-.11.036.245.778.45,1.587.768,2.338C242.238,165.135,242.711,164.907,242.579,164.6Z" transform="translate(-19.283 -9.593)" fill="#526d82"/>
    <path id="Path_726" data-name="Path 726" d="M257.149,166.882a2.371,2.371,0,0,0-.163.355c-.054.184-.008.376-.067.564-.011.038.046.06.059.022.055-.174.186-.3.254-.471a1.949,1.949,0,0,0,.086-.431C257.335,166.815,257.19,166.8,257.149,166.882Z" transform="translate(-23.203 -10.702)" fill="#526d82"/>
    <path id="Path_727" data-name="Path 727" d="M261.288,164.218l-.264.27c-.052.053.024.142.076.088l.263-.27C261.416,164.254,261.341,164.164,261.288,164.218Z" transform="translate(-24.231 -10.041)" fill="#526d82"/>
    <path id="Path_728" data-name="Path 728" d="M200.454,184.963a21.87,21.87,0,0,0-7.266,6.26c-.141.18.144.368.287.2a38.419,38.419,0,0,1,7.105-6.266C200.689,185.08,200.571,184.9,200.454,184.963Z" transform="translate(-7.163 -15.26)" fill="#526d82"/>
    <path id="Path_729" data-name="Path 729" d="M206.976,183.711a61.864,61.864,0,0,0-9.128,7.436c-.1.106.037.279.152.177a108.336,108.336,0,0,1,9.051-7.525C207.113,183.756,207.038,183.668,206.976,183.711Z" transform="translate(-8.336 -14.945)" fill="#526d82"/>
    <path id="Path_730" data-name="Path 730" d="M212.44,183.562a20.5,20.5,0,0,0-5.581,3.953c-.184.186.085.5.266.311a22.364,22.364,0,0,1,5.341-4.212A.029.029,0,0,0,212.44,183.562Z" transform="translate(-10.596 -14.91)" fill="#526d82"/>
    <path id="Path_731" data-name="Path 731" d="M217.75,183.7c-1.467,1.138-2.982,2.23-4.334,3.505a.233.233,0,0,0,.3.354c1.472-1.133,2.789-2.456,4.144-3.726A.088.088,0,0,0,217.75,183.7Z" transform="translate(-12.241 -14.939)" fill="#526d82"/>
    <path id="Path_732" data-name="Path 732" d="M221.847,185.678a5.54,5.54,0,0,0-1.106.732,2.67,2.67,0,0,0-.831.983c-.082.233.225.484.417.29a11.4,11.4,0,0,0,.669-.956,5.192,5.192,0,0,1,.945-.9C222.022,185.764,221.935,185.634,221.847,185.678Z" transform="translate(-13.891 -15.441)" fill="#526d82"/>
    <path id="Path_733" data-name="Path 733" d="M228.034,186.891a16.039,16.039,0,0,0-3.044,3.363c-.106.156.138.324.24.166a15.835,15.835,0,0,1,2.918-3.4A.088.088,0,0,0,228.034,186.891Z" transform="translate(-15.165 -15.743)" fill="#526d82"/>
    <path id="Path_734" data-name="Path 734" d="M233.984,184.461a31.5,31.5,0,0,0-5.973,6.858c-.164.254.233.524.383.266a31.3,31.3,0,0,1,5.628-7.08C234.05,184.479,234.014,184.436,233.984,184.461Z" transform="translate(-15.922 -15.135)" fill="#526d82"/>
    <path id="Path_735" data-name="Path 735" d="M244.231,177.6A41.451,41.451,0,0,0,233.262,190c-.192.355.283.712.527.366a80.224,80.224,0,0,1,10.517-12.675A.058.058,0,0,0,244.231,177.6Z" transform="translate(-17.241 -13.408)" fill="#526d82"/>
    <path id="Path_736" data-name="Path 736" d="M248.1,181.586a30.145,30.145,0,0,0-4.978,5.748c-.083.125.111.259.192.132a29.967,29.967,0,0,1,4.862-5.792C248.228,181.623,248.153,181.535,248.1,181.586Z" transform="translate(-19.727 -14.41)" fill="#526d82"/>
    <path id="Path_737" data-name="Path 737" d="M259.541,172.5c-4.274,3.034-8.484,6.887-11.059,11.512a.379.379,0,0,0,.623.432c3.18-4.367,6.3-8.4,10.589-11.767C259.812,172.583,259.662,172.414,259.541,172.5Z" transform="translate(-21.067 -12.122)" fill="#526d82"/>
    <path id="Path_738" data-name="Path 738" d="M269.508,169.343c-3.869,3.013-7.708,6.737-10.084,11.077-.194.355.284.712.527.366,2.914-4.155,5.742-8.025,9.633-11.353C269.641,169.382,269.567,169.3,269.508,169.343Z" transform="translate(-23.822 -11.331)" fill="#526d82"/>
    <path id="Path_739" data-name="Path 739" d="M269.436,175.6a18.015,18.015,0,0,0-3.915,4.914c-.143.263.246.531.384.266a17.732,17.732,0,0,1,3.759-4.914C269.829,175.714,269.606,175.449,269.436,175.6Z" transform="translate(-25.359 -12.897)" fill="#526d82"/>
    <path id="Path_740" data-name="Path 740" d="M276.559,173.031a47.654,47.654,0,0,0-3.614,3.578,15.818,15.818,0,0,0-2.59,3.316c-.116.234.238.472.418.29a41.344,41.344,0,0,0,2.522-3.29,47.043,47.043,0,0,1,3.378-3.762C276.752,173.086,276.645,172.956,276.559,173.031Z" transform="translate(-26.577 -12.256)" fill="#526d82"/>
    <path id="Path_741" data-name="Path 741" d="M281.617,172.488a39.774,39.774,0,0,0-4.9,4.716c-1.414,1.6-3.316,3.534-3.831,5.654-.054.22.217.507.417.29,1.364-1.485,2.121-3.547,3.292-5.2a30.684,30.684,0,0,1,5.056-5.411A.029.029,0,0,0,281.617,172.488Z" transform="translate(-27.218 -12.124)" fill="#526d82"/>
    <path id="Path_742" data-name="Path 742" d="M282.935,174.888a67.64,67.64,0,0,0-7.119,8.281c-2.067,2.874-4.484,6.076-5.424,9.528a.381.381,0,0,0,.668.347c2.156-2.876,3.524-6.339,5.5-9.357a81.048,81.048,0,0,1,6.545-8.643C283.193,174.944,283.029,174.794,282.935,174.888Z" transform="translate(-26.588 -12.722)" fill="#526d82"/>
    <path id="Path_743" data-name="Path 743" d="M289.112,176.09c-8.024,12.44-16.555,24.413-25.392,36.283-.113.153.121.309.24.166a277.083,277.083,0,0,0,25.3-36.35C289.311,176.094,289.173,175.994,289.112,176.09Z" transform="translate(-24.906 -13.021)" fill="#526d82"/>
    <path id="Path_744" data-name="Path 744" d="M289.477,174.031c-5.655,8.677-11.075,17.454-17.136,25.866-.132.183.155.382.287.2a247.371,247.371,0,0,0,17.04-25.933C289.739,174.035,289.561,173.9,289.477,174.031Z" transform="translate(-27.074 -12.5)" fill="#526d82"/>
    <path id="Path_745" data-name="Path 745" d="M298.9,184.454q-4.488,6.837-8.815,13.769c-.1.158.138.325.239.166q4.388-6.909,8.624-13.9C298.971,184.455,298.924,184.422,298.9,184.454Z" transform="translate(-31.54 -15.132)" fill="#526d82"/>
    <path id="Path_746" data-name="Path 746" d="M300.607,183.609a195.3,195.3,0,0,1-24.98,33.325c-.228.241.1.641.341.4a141.386,141.386,0,0,0,24.878-33.557C300.931,183.614,300.706,183.446,300.607,183.609Z" transform="translate(-27.89 -14.906)" fill="#526d82"/>
    <path id="Path_747" data-name="Path 747" d="M310.061,193.05c-1.926,2.507-3.718,5.087-5.507,7.693a.321.321,0,0,0,.527.365c1.765-2.625,3.5-5.242,5.124-7.958A.088.088,0,0,0,310.061,193.05Z" transform="translate(-35.17 -17.288)" fill="#526d82"/>
    <path id="Path_748" data-name="Path 748" d="M309.009,196.936c-5.567,7.129-11.258,14.066-17.153,20.925-.322.374.293.934.644.582a117.91,117.91,0,0,0,16.749-21.34A.146.146,0,0,0,309.009,196.936Z" transform="translate(-31.968 -18.26)" fill="#526d82"/>
    <path id="Path_749" data-name="Path 749" d="M314.06,203.119c-4.528,5.721-9.2,11.452-13.216,17.549a.292.292,0,0,0,.48.333c4.7-5.582,8.874-11.684,13.073-17.65C314.549,203.135,314.223,202.914,314.06,203.119Z" transform="translate(-34.238 -19.81)" fill="#526d82"/>
    <path id="Path_750" data-name="Path 750" d="M315.969,211.774c-4,4.513-8.066,8.979-11.959,13.587-.2.231.188.488.383.266,3.983-4.515,7.8-9.178,11.672-13.787C316.113,211.782,316.018,211.718,315.969,211.774Z" transform="translate(-35.035 -22.002)" fill="#526d82"/>
    <path id="Path_751" data-name="Path 751" d="M318.588,218.4c-2.52,3.272-5.482,6.537-7.439,10.187-.141.262.183.653.429.388,2.831-3.062,4.964-6.935,7.25-10.408A.146.146,0,0,0,318.588,218.4Z" transform="translate(-36.835 -23.658)" fill="#526d82"/>
    <path id="Path_752" data-name="Path 752" d="M320.03,226.342a73.219,73.219,0,0,0-4.609,6.325.467.467,0,0,0,.767.532,73.459,73.459,0,0,0,4.129-6.658A.175.175,0,0,0,320.03,226.342Z" transform="translate(-37.898 -25.653)" fill="#526d82"/>
    <path id="Path_753" data-name="Path 753" d="M228.037,265.814c-4.7,5.191-9.426,10.359-14,15.664-.043.05.04.126.086.078,4.819-5.06,9.488-10.254,14.18-15.431C228.476,265.933,228.213,265.62,228.037,265.814Z" transform="translate(-12.414 -35.585)" fill="#526d82"/>
    <path id="Path_754" data-name="Path 754" d="M227.017,279.537c-2.056,1.991-3.92,4.125-5.816,6.268-.022.025.019.061.043.039,2.068-1.957,4.127-3.885,6.038-6C227.453,279.659,227.21,279.35,227.017,279.537Z" transform="translate(-14.217 -39.037)" fill="#526d82"/>
    <path id="Path_755" data-name="Path 755" d="M229.217,282.47a5.245,5.245,0,0,0-2.191,2.875c-.061.163.155.254.257.133.716-.851,1.587-1.562,2.345-2.378C229.892,282.816,229.62,282.229,229.217,282.47Z" transform="translate(-15.681 -39.775)" fill="#526d82"/>
    <path id="Path_756" data-name="Path 756" d="M232.389,284.7a5.37,5.37,0,0,0-.9,1.07.176.176,0,0,0,.22.257,5.368,5.368,0,0,0,1.207-.707A.408.408,0,0,0,232.389,284.7Z" transform="translate(-16.8 -40.325)" fill="#526d82"/>
    <path id="Path_757" data-name="Path 757" d="M212.129,280.667a22.633,22.633,0,0,0-2.032,2.218c-.044.053.035.118.085.078a22.229,22.229,0,0,0,2.251-1.941C212.638,280.811,212.355,280.461,212.129,280.667Z" transform="translate(-11.422 -39.32)" fill="#526d82"/>
    <path id="Path_758" data-name="Path 758" d="M209.377,279.462a1.92,1.92,0,0,0-.947,1.795c.005.178.284.286.338.076a2.4,2.4,0,0,1,.988-1.289A.352.352,0,0,0,209.377,279.462Z" transform="translate(-11.006 -39.023)" fill="#526d82"/>
  </g>
</svg>
