<svg xmlns="http://www.w3.org/2000/svg" width="54.383" height="55.426" viewBox="0 0 54.383 55.426">
  <g id="Group_15" data-name="Group 15" transform="translate(-520.508 -542.159)">
    <path id="Path_765" data-name="Path 765" d="M534.1,580.9c0-7.037,8.874-12.742,19.822-12.742s19.822,5.7,19.822,12.742-8.875,12.743-19.822,12.743S534.1,587.939,534.1,580.9ZM546.843,569v-.136c0-8.214-5.711-14.866-12.748-14.866s-12.736,6.653-12.736,14.866,5.7,14.866,12.736,14.866c.161,0,.322,0,.483-.012" transform="translate(0.148 2.941)" fill="none" stroke="#dde6ed" stroke-miterlimit="10" stroke-width="2"/>
    <text id="A" transform="translate(548.558 589.159)" fill="#dde6ed" font-size="16" font-family="SegoeUI-Bold, Segoe UI" font-weight="700"><tspan x="0" y="0">A</tspan></text>
    <path id="Path_766" data-name="Path 766" d="M526,562h12.459" transform="translate(1.141 4.797)" fill="none" stroke="#dde6ed" stroke-miterlimit="10" stroke-width="2.5"/>
    <path id="Path_767" data-name="Path 767" d="M527.111,571.773a13.112,13.112,0,0,0,8.177-9.69" transform="translate(1.414 4.817)" fill="none" stroke="#dde6ed" stroke-miterlimit="10" stroke-width="2.5"/>
    <path id="Path_768" data-name="Path 768" d="M529.75,563.194s0,3.634,6.056,7.269" transform="translate(2.063 5.09)" fill="none" stroke="#dde6ed" stroke-miterlimit="10" stroke-width="2.5"/>
    <line id="Line_2" data-name="Line 2" y1="2.423" transform="translate(533.37 564.477)" fill="none" stroke="#dde6ed" stroke-miterlimit="10" stroke-width="2.5"/>
  </g>
</svg>
